<svg width="200" height="106" viewBox="0 0 200 106" fill="none" xmlns="http://www.w3.org/2000/svg">
<path d="M179.272 48.8594C178.391 48.5589 175.443 50.8709 174.785 51.3015C173.051 52.4339 170.204 54.4856 171.258 56.9328C171.935 58.4798 174.063 59.5452 175.539 60.1302C178.793 61.4196 182.029 61.4406 182.146 57.2301C182.304 51.6026 181.976 49.7787 181.976 49.7787L179.272 48.8594Z" fill="#ED1C24"/>
<path d="M183.46 45.7858C184.368 45.988 187.042 43.3666 187.649 42.8665C189.247 41.5504 191.851 39.1976 190.536 36.8818C189.694 35.417 187.462 34.5908 185.929 34.1717C182.554 33.2473 179.336 33.581 179.683 37.7794C180.143 43.3902 180.671 45.1676 180.671 45.1676L183.46 45.7858Z" fill="#ED1C24"/>
<path d="M16.3801 56.1115C15.4653 56.2838 14.0337 59.7447 13.6726 60.4433C12.7188 62.2819 11.2471 65.4679 13.3677 67.0806C14.7169 68.095 17.094 67.9789 18.6672 67.762C22.1351 67.286 24.9639 65.7141 22.9964 61.9897C20.3693 57.0111 19.1871 55.5839 19.1871 55.5839L16.3801 56.1115Z" fill="#ED1C24"/>
<path d="M17.7858 51.4709C18.6879 51.2444 19.9 47.7005 20.2165 46.9809C21.0535 45.0861 22.3224 41.8147 20.1061 40.3365C18.6956 39.4064 16.3307 39.6724 14.7734 39.9869C11.3424 40.6766 8.61707 42.4214 10.8142 46.0163C13.7469 50.822 15.0171 52.1726 15.0171 52.1726L17.7858 51.4709Z" fill="#ED1C24"/>
<path d="M5.40492 62.6033C36.5093 47.1896 81.6017 52.5988 101.22 18.6217C103.674 14.3716 105.467 9.71448 106.797 5.00187C107.445 2.71031 105.653 0.582077 103.367 0.497866C82.6269 -0.258117 60.593 10.4405 48.5342 27.3216C41.9792 36.4973 39.9377 47.6738 41.4892 58.7162C43.1026 70.2021 49.4752 80.8241 57.6239 88.8841C74.3257 105.404 99.5334 109.721 120.967 100.397C140.385 91.9501 156.214 72.3118 156.216 50.5484C156.217 26.0986 137.051 1.27553 111.757 0.00344068C109.937 -0.0877877 108.041 1.69468 108.198 3.56071C108.989 12.903 111.671 21.6781 117.566 29.0721C122.554 35.3267 129.697 39.3898 137.056 42.2192C152.564 48.1841 169.62 48.4393 185.82 51.2999C189.111 51.8811 192.382 52.5899 195.598 53.5047C200.02 54.7628 201.894 47.897 197.489 46.6441C181.731 42.1605 165.077 42.1382 149.146 38.4208C141.639 36.669 134.312 34.0642 128.074 29.4332C121.836 24.8035 118.085 17.784 116.336 10.3193C115.815 8.09342 115.506 5.83695 115.314 3.56071C114.127 4.74732 112.942 5.93265 111.757 7.11861C131.429 8.10809 146.329 26.711 148.755 45.3063C151.511 66.4343 136.536 85.6656 117.971 93.9948C108.126 98.4108 96.7813 99.3613 86.2996 96.9919C75.2495 94.493 65.6501 87.9259 58.4596 79.2822C51.2462 70.6084 47.3023 59.3867 48.163 48.1114C48.9457 37.8543 54.889 29.1519 62.4297 22.5298C73.3713 12.9209 88.7793 7.08161 103.367 7.61367C102.224 6.11255 101.08 4.61207 99.9373 3.11095C97.4161 12.0405 92.9293 19.9793 85.9972 26.2083C79.7611 31.8122 71.9225 35.4243 64.0673 38.1305C46.6931 44.1139 28.2012 46.098 10.9539 52.5152C7.84512 53.6725 4.78673 54.9867 1.81384 56.4604C-2.29718 58.4974 1.30857 64.6333 5.40492 62.6033Z" fill="#231F20"/>
</svg>
